Coordinates
version=1
nRows=19
nColumns=33
inDegrees=yes

Units are S.I. units (second, meters, Newtons, ...)
Angles are in degrees.

endheader
time	ground_thorax_rot_x	ground_thorax_rot_y	ground_thorax_rot_z	ground_thorax_tx	ground_thorax_ty	ground_thorax_tz	clav_prot_r	clav_elev_r	scapula_abduction_r	scapula_elevation_r	scapula_upward_rot_r	scapula_winging_r	shoulder_elv_r	plane_of_elev_r	axial_rot_r	elbow_flexion_r	pro_sup_r	wrist_flex_r	wrist_dev_r	clav_prot_l	clav_elev_l	scapula_abduction_l	scapula_elevation_l	scapula_upward_rot_l	scapula_winging_l	shoulder_elv_l	plane_of_elev_l	axial_rot_l	elbow_flexion_l	pro_sup_l	wrist_flex_l	wrist_dev_l
      1.58000000	     28.44185262	     42.48996783	     33.59746967	     -0.11628483	      1.01128358	      0.02379868	     -6.60191304	     44.99313010	    -36.91926818	     39.18542763	     39.91185357	      3.00846830	     16.31284642	    -90.00000000	      8.15158605	     65.19446523	     23.03513172	     37.36089809	      2.36226657	     28.14528255	    -31.93357890	    -45.00000000	     14.34599736	    -17.76330191	      6.02343363	      2.35486000	    -62.13580360	     -7.59303312	     49.92510982	     13.03070951	      3.47114219	    -24.99999983
      1.59000000	     28.53625459	     42.77765023	     33.42951491	     -0.11648669	      1.01162494	      0.02398263	     -6.96422195	     45.00000000	    -37.23256140	     38.95065682	     40.21904725	      2.74136487	     16.25816907	    -90.00000000	      8.20654426	     64.94443410	     23.00995186	     37.21901933	      1.91935646	     28.08672501	    -32.05103743	    -45.00000000	     14.70848729	    -17.13958816	      5.81065861	      1.58428066	    -62.20017515	     -7.32893038	     49.36836103	     12.56598358	      3.52423363	    -24.99999983
      1.60000000	     28.52692837	     42.78032549	     33.43871884	     -0.11665655	      1.01131869	      0.02390927	     -7.02149618	     44.96272597	    -37.24252035	     38.89592374	     40.19764908	      2.71048758	     16.19883938	    -90.00000000	      8.26588062	     65.01744875	     23.01231421	     37.24558004	      1.91730465	     28.09525003	    -32.06596333	    -45.00000000	     14.70575619	    -17.18090565	      5.80332609	      1.49744039	    -62.18035382	     -7.35479121	     49.37133043	     12.56058591	      3.52780446	    -24.99999983
      1.61000000	     28.45857138	     42.76787783	     33.49045907	     -0.11697341	      1.01117131	      0.02398546	     -7.11487374	     44.91663723	    -37.20954190	     38.80188184	     40.21001145	      2.63322260	     16.14924295	    -90.00000000	      8.31549954	     65.16360353	     22.99553515	     37.30477078	      1.85644929	     28.10514451	    -32.10754216	    -45.00000000	     14.73307421	    -17.20374154	      5.76989384	      1.40999061	    -62.15587126	     -7.31655303	     49.27485025	     12.53106023	      3.49436349	    -24.99999983
      1.62000000	     28.43142692	     42.79280340	     33.52594558	     -0.11708615	      1.01105139	      0.02389917	     -7.18409021	     44.87532839	    -37.21505154	     38.73478451	     40.19591653	      2.59235281	     16.11536468	    -90.00000000	      8.34938458	     65.20709252	     22.99141652	     37.32523363	      1.83502650	     28.11410781	    -32.12129135	    -45.00000000	     14.73260534	    -17.23858038	      5.76275189	      1.31606719	    -62.09154959	     -7.33597136	     49.29177752	     12.52210708	      3.48185439	    -24.99999983
      1.63000000	     28.38717133	     42.82536763	     33.58278425	     -0.11731485	      1.01103704	      0.02382272	     -7.25822440	     44.83811921	    -37.19625163	     38.66153205	     40.19751723	      2.53690814	     16.09976495	    -90.00000000	      8.36499010	     65.26925018	     22.98142420	     37.35243179	      1.80168220	     28.11956041	    -32.13908534	    -45.00000000	     14.73746829	    -17.26643714	      5.75128647	      1.22916686	    -62.01357975	     -7.35149448	     49.30835929	     12.51288982	      3.46233218	    -24.99999983
      1.64000000	     28.39497874	     42.71199404	     33.46056643	     -0.11775070	      1.01177607	      0.02368751	     -7.43435084	     44.50827349	    -36.75520576	     38.34239779	     39.83010379	      2.42343432	     16.03623634	    -90.00000000	      8.42888964	     64.86684165	     22.72803276	     38.03833263	      0.06915604	     28.17051397	    -32.45673930	    -45.00000000	     15.05102894	    -17.21070975	      5.44650075	      0.37584435	    -61.84272552	     -6.35476694	     49.00640985	     12.05145234	      2.10633024	    -24.99999983
      1.65000000	     28.35618326	     42.75916848	     33.52260025	     -0.11797636	      1.01176731	      0.02359638	     -7.48331359	     44.48709013	    -36.73442033	     38.29229292	     39.84401685	      2.38021097	     16.02989778	    -90.00000000	      8.43523110	     64.92908269	     22.72690089	     38.05684366	      0.06412201	     28.17202179	    -32.46280866	    -45.00000000	     15.05509474	    -17.21373629	      5.44182083	      0.30912799	    -61.75988816	     -6.38514519	     49.07208979	     12.05154048	      2.10583465	    -24.99999983
      1.66000000	     28.30256541	     42.78270628	     33.58265613	     -0.11816207	      1.01175790	      0.02348461	     -7.53248048	     44.46914713	    -36.71686042	     38.24325342	     39.86399862	      2.33777720	     16.03104151	    -90.00000000	      8.43409051	     64.99059009	     22.72506176	     38.07866856	      0.05381111	     28.17360672	    -32.47177500	    -45.00000000	     15.06342565	    -17.21326976	      5.43226436	      0.24482180	    -61.67119205	     -6.41484758	     49.13878051	     12.05191434	      2.10129848	    -24.99999983
      1.67000000	     28.25871079	     42.80661116	     33.64529495	     -0.11834065	      1.01176564	      0.02343685	     -7.57906856	     44.45309945	    -36.69100534	     38.19567247	     39.88692818	      2.29347113	     16.03793038	    -90.00000000	      8.42720467	     65.05241189	     22.72299709	     38.10374165	      0.03956100	     28.17519128	    -32.48003495	    -45.00000000	     15.07077936	    -17.21385456	      5.42508224	      0.18660002	    -61.59424337	     -6.43976415	     49.20090137	     12.05268011	      2.09232770	    -24.99999983
      1.68000000	     28.20766694	     42.81321377	     33.69647775	     -0.11845809	      1.01173293	      0.02335723	     -7.61760502	     44.44165226	    -36.67028893	     38.15633011	     39.90988613	      2.25713015	     16.04817741	    -90.00000000	      8.41696095	     65.10431381	     22.72217266	     38.12996655	      0.02347589	     28.17640461	    -32.48935806	    -45.00000000	     15.08051325	    -17.21017080	      5.41481881	      0.13649686	    -61.52046998	     -6.46054790	     49.26127142	     12.05363843	      2.07918263	    -24.99999983
      1.69000000	     28.16769412	     42.82035534	     33.74691506	     -0.11857517	      1.01169798	      0.02332628	     -7.65291989	     44.43085895	    -36.64337098	     38.11942654	     39.93268829	      2.22103035	     16.06063479	    -90.00000000	      8.40450742	     65.15453624	     22.72312306	     38.16134479	      0.00471872	     28.17792491	    -32.49789473	    -45.00000000	     15.08861831	    -17.20963438	      5.40711927	      0.08907936	    -61.46050455	     -6.47684162	     49.31964983	     12.05542439	      2.05960290	    -24.99999983
      1.70000000	     28.12817853	     42.81621886	     33.78458646	     -0.11865660	      1.01163741	      0.02328332	     -7.67604895	     44.42504489	    -36.62138492	     38.09423518	     39.95106420	      2.19741706	     16.07171308	    -90.00000000	      8.39343273	     65.19044916	     22.72589319	     38.19013951	     -0.01116064	     28.17863175	    -32.50628909	    -45.00000000	     15.09958604	    -17.20339004	      5.39636950	      0.05528736	    -61.40771054	     -6.48765791	     49.37209965	     12.05696197	      2.03832768	    -24.99999983
      1.71000000	     28.09140754	     42.81353020	     33.81778919	     -0.11872677	      1.01155890	      0.02323526	     -7.69276237	     44.42094354	    -36.59573062	     38.07412302	     39.96639792	      2.17548218	     16.08102099	    -90.00000000	      8.38412812	     65.22285652	     22.72981026	     38.21897684	     -0.02473141	     28.17971474	    -32.51665573	    -45.00000000	     15.11118448	    -17.19747125	      5.38628275	      0.02498451	    -61.36050086	     -6.49751992	     49.42247621	     12.05869593	      2.01573517	    -24.99999983
      1.72000000	     28.08801961	     42.81443598	     33.82109719	     -0.11856346	      1.01138097	      0.02328142	     -7.69362676	     44.42044990	    -36.59268330	     38.07269634	     39.96746186	      2.17398399	     16.08164615	    -90.00000000	      8.38350313	     65.22506606	     22.73007963	     38.22087910	     -0.02551644	     28.17998926	    -32.51891022	    -45.00000000	     15.11466137	    -17.19634470	      5.38781625	      0.02331276	    -61.35557591	     -6.49830061	     49.42637324	     12.05876103	      2.01413422	    -24.99999983
      1.73000000	     27.80618250	     42.63444408	     34.09264435	     -0.11873898	      1.01152232	      0.02317924	     -7.65588334	     44.23713494	    -36.23903999	     37.98092289	     39.65947443	      2.20595082	     16.13603673	    -90.00000000	      8.32948069	     64.85431963	     23.47384156	     39.82488209	     -0.57679147	     28.29147304	    -32.92361453	    -45.00000000	     15.37539642	    -17.46819958	      5.05166878	     -0.50602472	    -61.75677449	     -5.77388475	     49.92000358	     12.38255000	     -0.19205054	    -24.99999983
      1.74000000	     27.80263953	     42.63584310	     34.09442456	     -0.11857123	      1.01134602	      0.02321967	     -7.65601304	     44.23707792	    -36.23664807	     37.98005804	     39.66064865	      2.20642967	     16.13661840	    -90.00000000	      8.32889917	     64.85548271	     23.47380755	     39.82505874	     -0.57701347	     28.29151718	    -32.92575533	    -45.00000000	     15.37814582	    -17.46606366	      5.05201834	     -0.50673917	    -61.75153806	     -5.77494821	     49.92256764	     12.38280446	     -0.19216873	    -24.99999983
      1.75000000	     27.76338487	     42.64408081	     34.12058271	     -0.11878766	      1.01129552	      0.02308053	     -7.65856336	     44.23715568	    -36.20347339	     37.97031808	     39.67353425	      2.19681657	     16.13829204	    -90.00000000	      8.32722842	     64.88631959	     23.47418492	     39.83269627	     -0.57889105	     28.29122940	    -32.94058725	    -45.00000000	     15.40103929	    -17.44345402	      5.02984244	     -0.52939988	    -61.68320896	     -5.79811681	     49.97310625	     12.38830217	     -0.19602196	    -24.99999983
      1.76000000	     27.76055423	     42.64584925	     34.12220455	     -0.11863045	      1.01112120	      0.02311091	     -7.65860005	     44.23718506	    -36.20017329	     37.97000031	     39.67351695	      2.19494057	     16.13803692	    -90.00000000	      8.32748369	     64.88860033	     23.47420847	     39.83325744	     -0.57892889	     28.29157085	    -32.94295390	    -45.00000000	     15.40412991	    -17.44260939	      5.03059305	     -0.53136754	    -61.67885953	     -5.79998932	     49.97637258	     12.38868753	     -0.19634173	    -24.99999983
